<svg xmlns="http://www.w3.org/2000/svg" xmlns:xlink="http://www.w3.org/1999/xlink" width="180" zoomAndPan="magnify" viewBox="0 0 135 44.999999" height="55" preserveAspectRatio="xMidYMid meet" version="1.0"><defs><g/><clipPath id="362abe3c5c"><path d="M 0 0 L 14 0 L 14 44.863281 L 0 44.863281 Z M 0 0 " clip-rule="nonzero"/></clipPath></defs><g clip-path="url(#362abe3c5c)"><path fill="#1d4ed8" d="M 12.65625 5.058594 L 13.921875 5.058594 L 13.921875 0 L 12.65625 0 C 8.464844 0 5.066406 3.398438 5.066406 7.589844 L 5.066406 16.445312 C 5.066406 17.242188 4.691406 17.992188 4.054688 18.46875 L 1.019531 20.746094 C 0.414062 21.199219 0.0429688 21.90625 0.0117188 22.664062 C -0.0195312 23.421875 0.289062 24.15625 0.859375 24.660156 L 4.21875 27.648438 C 4.757812 28.128906 5.066406 28.816406 5.066406 29.539062 L 5.066406 37.949219 C 5.066406 42.140625 8.464844 45.539062 12.65625 45.539062 L 13.921875 45.539062 L 13.921875 40.480469 L 12.65625 40.480469 C 11.261719 40.480469 10.128906 39.347656 10.128906 37.949219 L 10.128906 29.539062 C 10.128906 27.371094 9.199219 25.304688 7.578125 23.867188 L 6.535156 22.933594 L 7.09375 22.515625 C 9.003906 21.082031 10.128906 18.832031 10.128906 16.445312 L 10.128906 7.589844 C 10.128906 6.191406 11.261719 5.058594 12.65625 5.058594 Z M 12.65625 5.058594 " fill-opacity="1" fill-rule="evenodd"/></g><g fill="#2563eb" fill-opacity="1"><g transform="translate(19.134024, 14.232698)"><g><path d="M 9.765625 -7.03125 L 9.765625 -12 L 12.484375 -12 L 12.484375 0 L 9.765625 0 L 9.765625 -4.640625 L 3.75 -4.640625 L 3.75 0 L 1.015625 0 L 1.015625 -12 L 3.75 -12 L 3.75 -7.03125 Z M 9.765625 -7.03125 "/></g></g></g><g fill="#2563eb" fill-opacity="1"><g transform="translate(32.643935, 14.232698)"><g><path d="M 4.203125 -9.4375 C 3.703125 -9.4375 3.3125 -9.550781 3.03125 -9.78125 C 2.75 -10.019531 2.609375 -10.363281 2.609375 -10.8125 C 2.609375 -11.238281 2.75 -11.570312 3.03125 -11.8125 C 3.3125 -12.050781 3.703125 -12.171875 4.203125 -12.171875 C 4.703125 -12.171875 5.097656 -12.050781 5.390625 -11.8125 C 5.691406 -11.570312 5.84375 -11.238281 5.84375 -10.8125 C 5.84375 -10.363281 5.691406 -10.019531 5.390625 -9.78125 C 5.097656 -9.550781 4.703125 -9.4375 4.203125 -9.4375 Z M 8.171875 0 L 0.6875 0 L 0.6875 -2.375 L 3.109375 -2.375 L 3.109375 -6.3125 L 1.015625 -6.203125 L 1.015625 -8.59375 L 4.25 -8.765625 C 4.726562 -8.785156 5.09375 -8.671875 5.34375 -8.421875 C 5.601562 -8.171875 5.734375 -7.804688 5.734375 -7.328125 L 5.734375 -2.375 L 8.171875 -2.375 Z M 8.171875 0 "/></g></g></g><g fill="#2563eb" fill-opacity="1"><g transform="translate(41.151443, 14.232698)"><g><path d="M 12.53125 -8.765625 C 13.257812 -8.765625 13.832031 -8.566406 14.25 -8.171875 C 14.664062 -7.785156 14.957031 -7.265625 15.125 -6.609375 C 15.289062 -5.953125 15.375 -5.238281 15.375 -4.46875 L 15.375 0 L 12.65625 0 L 12.65625 -4.28125 C 12.65625 -5.101562 12.566406 -5.65625 12.390625 -5.9375 C 12.210938 -6.226562 11.878906 -6.375 11.390625 -6.375 C 10.898438 -6.375 10.519531 -6.238281 10.25 -5.96875 C 9.988281 -5.695312 9.804688 -5.304688 9.703125 -4.796875 C 9.609375 -4.296875 9.5625 -3.703125 9.5625 -3.015625 L 9.5625 0 L 6.84375 0 L 6.84375 -4.28125 C 6.84375 -5.101562 6.753906 -5.65625 6.578125 -5.9375 C 6.398438 -6.226562 6.0625 -6.375 5.5625 -6.375 C 5.070312 -6.375 4.691406 -6.238281 4.421875 -5.96875 C 4.160156 -5.695312 3.984375 -5.304688 3.890625 -4.796875 C 3.796875 -4.296875 3.75 -3.703125 3.75 -3.015625 L 3.75 0 L 1.015625 0 L 1.015625 -8.59375 L 3.75 -8.59375 L 3.75 -7.71875 L 3.234375 -6.1875 L 3.90625 -6.1875 C 4.082031 -6.957031 4.382812 -7.578125 4.8125 -8.046875 C 5.25 -8.523438 5.878906 -8.765625 6.703125 -8.765625 C 7.503906 -8.765625 8.097656 -8.519531 8.484375 -8.03125 C 8.867188 -7.550781 9.125 -6.9375 9.25 -6.1875 L 9.75 -6.1875 C 9.914062 -6.957031 10.210938 -7.578125 10.640625 -8.046875 C 11.066406 -8.523438 11.695312 -8.765625 12.53125 -8.765625 Z M 12.53125 -8.765625 "/></g></g></g><g fill="#2563eb" fill-opacity="1"><g transform="translate(57.383765, 14.232698)"><g><path d="M 0.6875 -2.34375 C 0.6875 -3.082031 0.941406 -3.671875 1.453125 -4.109375 C 1.960938 -4.554688 2.851562 -4.867188 4.125 -5.046875 L 6.828125 -5.421875 C 6.828125 -5.773438 6.6875 -6.050781 6.40625 -6.25 C 6.125 -6.445312 5.691406 -6.546875 5.109375 -6.546875 C 4.554688 -6.546875 4.132812 -6.4375 3.84375 -6.21875 C 3.550781 -6.007812 3.40625 -5.707031 3.40625 -5.3125 L 0.84375 -5.3125 C 0.84375 -6.03125 1.03125 -6.648438 1.40625 -7.171875 C 1.78125 -7.691406 2.289062 -8.085938 2.9375 -8.359375 C 3.582031 -8.628906 4.304688 -8.765625 5.109375 -8.765625 C 5.898438 -8.765625 6.628906 -8.628906 7.296875 -8.359375 C 7.960938 -8.097656 8.503906 -7.671875 8.921875 -7.078125 C 9.335938 -6.492188 9.546875 -5.734375 9.546875 -4.796875 L 9.546875 -2.375 L 10.78125 -2.375 L 10.78125 0 L 8.90625 0 C 8.488281 0 8.171875 -0.109375 7.953125 -0.328125 C 7.734375 -0.546875 7.625 -0.863281 7.625 -1.28125 L 7.625 -1.453125 L 8.046875 -2.46875 L 7.375 -2.46875 C 7.269531 -1.988281 7.085938 -1.550781 6.828125 -1.15625 C 6.578125 -0.757812 6.210938 -0.4375 5.734375 -0.1875 C 5.253906 0.0507812 4.613281 0.171875 3.8125 0.171875 C 3.144531 0.171875 2.601562 0.0820312 2.1875 -0.09375 C 1.769531 -0.269531 1.453125 -0.488281 1.234375 -0.75 C 1.023438 -1.019531 0.878906 -1.300781 0.796875 -1.59375 C 0.722656 -1.882812 0.6875 -2.132812 0.6875 -2.34375 Z M 3.40625 -2.859375 C 3.40625 -2.609375 3.503906 -2.4375 3.703125 -2.34375 C 3.898438 -2.257812 4.113281 -2.21875 4.34375 -2.21875 C 5.09375 -2.21875 5.691406 -2.363281 6.140625 -2.65625 C 6.597656 -2.957031 6.828125 -3.367188 6.828125 -3.890625 L 4.625 -3.59375 C 4.21875 -3.53125 3.910156 -3.453125 3.703125 -3.359375 C 3.503906 -3.273438 3.40625 -3.109375 3.40625 -2.859375 Z M 3.40625 -2.859375 "/></g></g></g><g fill="#2563eb" fill-opacity="1"><g transform="translate(68.34143, 14.232698)"><g><path d="M 6.1875 -6.375 C 5.707031 -6.375 5.28125 -6.273438 4.90625 -6.078125 C 4.539062 -5.878906 4.253906 -5.546875 4.046875 -5.078125 C 3.847656 -4.617188 3.75 -3.988281 3.75 -3.1875 L 3.75 0 L 1.015625 0 L 1.015625 -8.59375 L 3.75 -8.59375 L 3.75 -7.5625 L 3.234375 -6.03125 L 3.90625 -6.03125 C 4.082031 -6.800781 4.4375 -7.445312 4.96875 -7.96875 C 5.507812 -8.5 6.238281 -8.765625 7.15625 -8.765625 C 8.257812 -8.765625 9.125 -8.410156 9.75 -7.703125 C 10.375 -6.992188 10.6875 -5.972656 10.6875 -4.640625 L 10.6875 0 L 7.96875 0 L 7.96875 -4.21875 C 7.96875 -5 7.835938 -5.550781 7.578125 -5.875 C 7.316406 -6.207031 6.851562 -6.375 6.1875 -6.375 Z M 6.1875 -6.375 "/></g></g></g><g fill="#2563eb" fill-opacity="1"><g transform="translate(79.877614, 14.232698)"><g><path d="M 9.03125 -2.359375 C 9.03125 -1.890625 8.898438 -1.460938 8.640625 -1.078125 C 8.390625 -0.691406 7.972656 -0.382812 7.390625 -0.15625 C 6.804688 0.0625 6.019531 0.171875 5.03125 0.171875 C 3.457031 0.171875 2.3125 -0.125 1.59375 -0.71875 C 0.875 -1.3125 0.515625 -2.109375 0.515625 -3.109375 L 3.234375 -3.109375 C 3.234375 -2.785156 3.367188 -2.5 3.640625 -2.25 C 3.910156 -2 4.40625 -1.875 5.125 -1.875 C 5.488281 -1.875 5.773438 -1.914062 5.984375 -2 C 6.203125 -2.09375 6.3125 -2.242188 6.3125 -2.453125 C 6.3125 -2.679688 6.175781 -2.847656 5.90625 -2.953125 C 5.632812 -3.066406 5.148438 -3.238281 4.453125 -3.46875 C 4.054688 -3.601562 3.648438 -3.738281 3.234375 -3.875 C 2.816406 -4.007812 2.429688 -4.175781 2.078125 -4.375 C 1.722656 -4.570312 1.4375 -4.828125 1.21875 -5.140625 C 1.007812 -5.460938 0.90625 -5.863281 0.90625 -6.34375 C 0.90625 -7.113281 1.234375 -7.707031 1.890625 -8.125 C 2.546875 -8.550781 3.460938 -8.765625 4.640625 -8.765625 C 5.617188 -8.765625 6.40625 -8.617188 7 -8.328125 C 7.601562 -8.035156 8.046875 -7.65625 8.328125 -7.1875 C 8.609375 -6.71875 8.75 -6.207031 8.75 -5.65625 L 6.03125 -5.65625 C 6.03125 -5.957031 5.910156 -6.207031 5.671875 -6.40625 C 5.441406 -6.613281 5.09375 -6.71875 4.625 -6.71875 C 3.957031 -6.71875 3.625 -6.554688 3.625 -6.234375 C 3.625 -6.023438 3.820312 -5.84375 4.21875 -5.6875 C 4.613281 -5.539062 5.15625 -5.351562 5.84375 -5.125 C 6.394531 -4.9375 6.914062 -4.742188 7.40625 -4.546875 C 7.894531 -4.347656 8.285156 -4.082031 8.578125 -3.75 C 8.878906 -3.425781 9.03125 -2.960938 9.03125 -2.359375 Z M 9.03125 -2.359375 "/></g></g></g><g fill="#2563eb" fill-opacity="1"><g transform="translate(89.252892, 14.232698)"><g><path d="M 7.15625 -8.765625 C 8.257812 -8.765625 9.125 -8.410156 9.75 -7.703125 C 10.375 -6.992188 10.6875 -5.972656 10.6875 -4.640625 L 10.6875 0 L 7.96875 0 L 7.96875 -4.21875 C 7.96875 -5 7.835938 -5.550781 7.578125 -5.875 C 7.316406 -6.207031 6.851562 -6.375 6.1875 -6.375 C 5.707031 -6.375 5.28125 -6.273438 4.90625 -6.078125 C 4.539062 -5.878906 4.253906 -5.546875 4.046875 -5.078125 C 3.847656 -4.617188 3.75 -3.988281 3.75 -3.1875 L 3.75 0 L 1.015625 0 L 1.015625 -12.5 L 3.75 -12.5 L 3.75 -7.5625 L 3.234375 -6.03125 L 3.90625 -6.03125 C 4.082031 -6.800781 4.4375 -7.445312 4.96875 -7.96875 C 5.507812 -8.5 6.238281 -8.765625 7.15625 -8.765625 Z M 7.15625 -8.765625 "/></g></g></g><g fill="#2563eb" fill-opacity="1"><g transform="translate(100.789076, 14.232698)"><g><path d="M 5.34375 -2.21875 C 5.84375 -2.21875 6.273438 -2.316406 6.640625 -2.515625 C 7.003906 -2.710938 7.285156 -3.039062 7.484375 -3.5 C 7.691406 -3.96875 7.796875 -4.601562 7.796875 -5.40625 L 7.796875 -8.59375 L 10.515625 -8.59375 L 10.515625 0 L 7.796875 0 L 7.796875 -1.03125 L 8.296875 -2.5625 L 7.625 -2.5625 C 7.457031 -1.800781 7.101562 -1.15625 6.5625 -0.625 C 6.019531 -0.09375 5.289062 0.171875 4.375 0.171875 C 3.269531 0.171875 2.40625 -0.179688 1.78125 -0.890625 C 1.15625 -1.597656 0.84375 -2.617188 0.84375 -3.953125 L 0.84375 -8.59375 L 3.578125 -8.59375 L 3.578125 -4.375 C 3.578125 -3.59375 3.707031 -3.035156 3.96875 -2.703125 C 4.226562 -2.378906 4.6875 -2.21875 5.34375 -2.21875 Z M 5.34375 -2.21875 "/></g></g></g><g fill="#2563eb" fill-opacity="1"><g transform="translate(19.134024, 30.12994)"><g><path d="M 8.765625 -12 L 12.75 -12 L 5.515625 -5.984375 L 12.75 0 L 8.765625 0 L 3.75 -4.234375 L 3.75 0 L 1.015625 0 L 1.015625 -12 L 3.75 -12 L 3.75 -7.734375 Z M 8.765625 -12 "/></g></g></g><g fill="#2563eb" fill-opacity="1"><g transform="translate(32.218566, 30.12994)"><g><path d="M 0.6875 -4.3125 C 0.6875 -5.300781 0.898438 -6.125 1.328125 -6.78125 C 1.753906 -7.445312 2.335938 -7.941406 3.078125 -8.265625 C 3.816406 -8.597656 4.632812 -8.765625 5.53125 -8.765625 C 6.425781 -8.765625 7.238281 -8.597656 7.96875 -8.265625 C 8.695312 -7.941406 9.273438 -7.445312 9.703125 -6.78125 C 10.140625 -6.125 10.359375 -5.300781 10.359375 -4.3125 C 10.359375 -3.3125 10.140625 -2.476562 9.703125 -1.8125 C 9.273438 -1.144531 8.695312 -0.644531 7.96875 -0.3125 C 7.238281 0.0078125 6.425781 0.171875 5.53125 0.171875 C 4.632812 0.171875 3.816406 0.0078125 3.078125 -0.3125 C 2.335938 -0.644531 1.753906 -1.144531 1.328125 -1.8125 C 0.898438 -2.476562 0.6875 -3.3125 0.6875 -4.3125 Z M 3.40625 -4.3125 C 3.40625 -3.582031 3.597656 -3.050781 3.984375 -2.71875 C 4.367188 -2.382812 4.882812 -2.21875 5.53125 -2.21875 C 6.164062 -2.21875 6.675781 -2.382812 7.0625 -2.71875 C 7.445312 -3.050781 7.640625 -3.582031 7.640625 -4.3125 C 7.640625 -5.019531 7.445312 -5.539062 7.0625 -5.875 C 6.675781 -6.207031 6.164062 -6.375 5.53125 -6.375 C 4.882812 -6.375 4.367188 -6.207031 3.984375 -5.875 C 3.597656 -5.539062 3.40625 -5.019531 3.40625 -4.3125 Z M 3.40625 -4.3125 "/></g></g></g><g fill="#2563eb" fill-opacity="1"><g transform="translate(43.261306, 30.12994)"><g><path d="M 4.9375 -6.203125 L 4.9375 -2.21875 L 8.09375 -2.375 L 8.09375 0 L 3.65625 0.171875 C 3.1875 0.179688 2.828125 0.0625 2.578125 -0.1875 C 2.335938 -0.445312 2.21875 -0.8125 2.21875 -1.28125 L 2.21875 -6.203125 L 0.171875 -6.203125 L 0.171875 -8.59375 L 2.21875 -8.59375 L 2.21875 -10.203125 L 4.9375 -11.0625 L 4.9375 -8.59375 L 7.765625 -8.59375 L 7.765625 -6.203125 Z M 4.9375 -6.203125 "/></g></g></g><g fill="#2563eb" fill-opacity="1"><g transform="translate(51.870902, 30.12994)"><g><path d="M 4.203125 -9.4375 C 3.703125 -9.4375 3.3125 -9.550781 3.03125 -9.78125 C 2.75 -10.019531 2.609375 -10.363281 2.609375 -10.8125 C 2.609375 -11.238281 2.75 -11.570312 3.03125 -11.8125 C 3.3125 -12.050781 3.703125 -12.171875 4.203125 -12.171875 C 4.703125 -12.171875 5.097656 -12.050781 5.390625 -11.8125 C 5.691406 -11.570312 5.84375 -11.238281 5.84375 -10.8125 C 5.84375 -10.363281 5.691406 -10.019531 5.390625 -9.78125 C 5.097656 -9.550781 4.703125 -9.4375 4.203125 -9.4375 Z M 8.171875 0 L 0.6875 0 L 0.6875 -2.375 L 3.109375 -2.375 L 3.109375 -6.3125 L 1.015625 -6.203125 L 1.015625 -8.59375 L 4.25 -8.765625 C 4.726562 -8.785156 5.09375 -8.671875 5.34375 -8.421875 C 5.601562 -8.171875 5.734375 -7.804688 5.734375 -7.328125 L 5.734375 -2.375 L 8.171875 -2.375 Z M 8.171875 0 "/></g></g></g><g fill="#2563eb" fill-opacity="1"><g transform="translate(60.378411, 30.12994)"><g><path d="M 0.6875 -2.34375 C 0.6875 -3.082031 0.941406 -3.671875 1.453125 -4.109375 C 1.960938 -4.554688 2.851562 -4.867188 4.125 -5.046875 L 6.828125 -5.421875 C 6.828125 -5.773438 6.6875 -6.050781 6.40625 -6.25 C 6.125 -6.445312 5.691406 -6.546875 5.109375 -6.546875 C 4.554688 -6.546875 4.132812 -6.4375 3.84375 -6.21875 C 3.550781 -6.007812 3.40625 -5.707031 3.40625 -5.3125 L 0.84375 -5.3125 C 0.84375 -6.03125 1.03125 -6.648438 1.40625 -7.171875 C 1.78125 -7.691406 2.289062 -8.085938 2.9375 -8.359375 C 3.582031 -8.628906 4.304688 -8.765625 5.109375 -8.765625 C 5.898438 -8.765625 6.628906 -8.628906 7.296875 -8.359375 C 7.960938 -8.097656 8.503906 -7.671875 8.921875 -7.078125 C 9.335938 -6.492188 9.546875 -5.734375 9.546875 -4.796875 L 9.546875 -2.375 L 10.78125 -2.375 L 10.78125 0 L 8.90625 0 C 8.488281 0 8.171875 -0.109375 7.953125 -0.328125 C 7.734375 -0.546875 7.625 -0.863281 7.625 -1.28125 L 7.625 -1.453125 L 8.046875 -2.46875 L 7.375 -2.46875 C 7.269531 -1.988281 7.085938 -1.550781 6.828125 -1.15625 C 6.578125 -0.757812 6.210938 -0.4375 5.734375 -0.1875 C 5.253906 0.0507812 4.613281 0.171875 3.8125 0.171875 C 3.144531 0.171875 2.601562 0.0820312 2.1875 -0.09375 C 1.769531 -0.269531 1.453125 -0.488281 1.234375 -0.75 C 1.023438 -1.019531 0.878906 -1.300781 0.796875 -1.59375 C 0.722656 -1.882812 0.6875 -2.132812 0.6875 -2.34375 Z M 3.40625 -2.859375 C 3.40625 -2.609375 3.503906 -2.4375 3.703125 -2.34375 C 3.898438 -2.257812 4.113281 -2.21875 4.34375 -2.21875 C 5.09375 -2.21875 5.691406 -2.363281 6.140625 -2.65625 C 6.597656 -2.957031 6.828125 -3.367188 6.828125 -3.890625 L 4.625 -3.59375 C 4.21875 -3.53125 3.910156 -3.453125 3.703125 -3.359375 C 3.503906 -3.273438 3.40625 -3.109375 3.40625 -2.859375 Z M 3.40625 -2.859375 "/></g></g></g><g fill="#64748b" fill-opacity="1"><g transform="translate(19.134024, 43.159927)"><g><path d="M 1.75 0 L 0.171875 -4.828125 L 0.609375 -4.828125 L 1.328125 -2.625 L 1.96875 -0.65625 L 2.6875 -2.625 L 3.484375 -4.828125 L 3.890625 -4.828125 L 5.421875 -0.65625 L 6.0625 -2.625 L 6.78125 -4.828125 L 7.21875 -4.828125 L 5.625 0 L 5.234375 0 L 3.6875 -4.203125 L 2.828125 -1.859375 L 2.140625 0 Z M 1.75 0 "/></g></g></g><g fill="#64748b" fill-opacity="1"><g transform="translate(26.372471, 43.159927)"><g><path d="M 0.78125 0 L 0.78125 -4.828125 L 3.625 -4.828125 L 3.625 -4.4375 L 1.203125 -4.4375 L 1.203125 -2.65625 L 3.453125 -2.65625 L 3.453125 -2.265625 L 1.203125 -2.265625 L 1.203125 -0.390625 L 3.703125 -0.390625 L 3.703125 0 Z M 0.78125 0 "/></g></g></g><g fill="#64748b" fill-opacity="1"><g transform="translate(30.436762, 43.159927)"><g><path d="M 0.78125 0 L 0.78125 -4.828125 L 2.625 -4.828125 C 3.0625 -4.828125 3.410156 -4.710938 3.671875 -4.484375 C 3.941406 -4.265625 4.078125 -3.960938 4.078125 -3.578125 C 4.078125 -3.316406 4.007812 -3.09375 3.875 -2.90625 C 3.75 -2.71875 3.566406 -2.582031 3.328125 -2.5 C 3.609375 -2.414062 3.828125 -2.269531 3.984375 -2.0625 C 4.140625 -1.863281 4.21875 -1.613281 4.21875 -1.3125 C 4.21875 -0.914062 4.078125 -0.597656 3.796875 -0.359375 C 3.523438 -0.117188 3.15625 0 2.6875 0 Z M 1.203125 -0.390625 L 2.671875 -0.390625 C 3.023438 -0.390625 3.300781 -0.472656 3.5 -0.640625 C 3.695312 -0.804688 3.796875 -1.035156 3.796875 -1.328125 C 3.796875 -1.628906 3.695312 -1.859375 3.5 -2.015625 C 3.300781 -2.179688 3.019531 -2.265625 2.65625 -2.265625 L 1.203125 -2.265625 Z M 1.203125 -2.65625 L 2.609375 -2.65625 C 2.929688 -2.65625 3.1875 -2.734375 3.375 -2.890625 C 3.5625 -3.046875 3.65625 -3.265625 3.65625 -3.546875 C 3.65625 -3.828125 3.5625 -4.046875 3.375 -4.203125 C 3.1875 -4.359375 2.929688 -4.4375 2.609375 -4.4375 L 1.203125 -4.4375 Z M 1.203125 -2.65625 "/></g></g></g><g fill="#64748b" fill-opacity="1"><g transform="translate(34.96338, 43.159927)"><g/></g></g><g fill="#64748b" fill-opacity="1"><g transform="translate(36.67466, 43.159927)"><g><path d="M 0.78125 0 L 0.78125 -4.828125 L 2.3125 -4.828125 C 2.820312 -4.828125 3.265625 -4.726562 3.640625 -4.53125 C 4.015625 -4.332031 4.304688 -4.050781 4.515625 -3.6875 C 4.722656 -3.332031 4.828125 -2.910156 4.828125 -2.421875 C 4.828125 -1.929688 4.722656 -1.503906 4.515625 -1.140625 C 4.304688 -0.773438 4.015625 -0.492188 3.640625 -0.296875 C 3.265625 -0.0976562 2.820312 0 2.3125 0 Z M 1.203125 -0.40625 L 2.3125 -0.40625 C 2.738281 -0.40625 3.109375 -0.484375 3.421875 -0.640625 C 3.734375 -0.804688 3.972656 -1.039062 4.140625 -1.34375 C 4.304688 -1.644531 4.390625 -2.003906 4.390625 -2.421875 C 4.390625 -2.828125 4.300781 -3.179688 4.125 -3.484375 C 3.957031 -3.785156 3.71875 -4.019531 3.40625 -4.1875 C 3.09375 -4.351562 2.722656 -4.4375 2.296875 -4.4375 L 1.203125 -4.4375 Z M 1.203125 -0.40625 "/></g></g></g><g fill="#64748b" fill-opacity="1"><g transform="translate(41.794702, 43.159927)"><g><path d="M 0.78125 0 L 0.78125 -4.828125 L 3.625 -4.828125 L 3.625 -4.4375 L 1.203125 -4.4375 L 1.203125 -2.65625 L 3.453125 -2.65625 L 3.453125 -2.265625 L 1.203125 -2.265625 L 1.203125 -0.390625 L 3.703125 -0.390625 L 3.703125 0 Z M 0.78125 0 "/></g></g></g><g fill="#64748b" fill-opacity="1"><g transform="translate(45.858993, 43.159927)"><g><path d="M 2.09375 0 L 0.15625 -4.828125 L 0.59375 -4.828125 L 2.296875 -0.578125 L 3.015625 -2.421875 L 3.984375 -4.828125 L 4.421875 -4.828125 L 2.5 0 Z M 2.09375 0 "/></g></g></g><g fill="#64748b" fill-opacity="1"><g transform="translate(50.295906, 43.159927)"><g><path d="M 0.78125 0 L 0.78125 -4.828125 L 3.625 -4.828125 L 3.625 -4.4375 L 1.203125 -4.4375 L 1.203125 -2.65625 L 3.453125 -2.65625 L 3.453125 -2.265625 L 1.203125 -2.265625 L 1.203125 -0.390625 L 3.703125 -0.390625 L 3.703125 0 Z M 0.78125 0 "/></g></g></g><g fill="#64748b" fill-opacity="1"><g transform="translate(54.360197, 43.159927)"><g><path d="M 0.78125 0 L 0.78125 -4.828125 L 1.203125 -4.828125 L 1.203125 -0.40625 L 3.65625 -0.40625 L 3.65625 0 Z M 0.78125 0 "/></g></g></g><g fill="#64748b" fill-opacity="1"><g transform="translate(58.107074, 43.159927)"><g><path d="M 2.9375 0.09375 C 2.445312 0.09375 2.015625 -0.0078125 1.640625 -0.21875 C 1.265625 -0.4375 0.96875 -0.734375 0.75 -1.109375 C 0.539062 -1.484375 0.4375 -1.921875 0.4375 -2.421875 C 0.4375 -2.910156 0.539062 -3.34375 0.75 -3.71875 C 0.96875 -4.09375 1.265625 -4.382812 1.640625 -4.59375 C 2.015625 -4.8125 2.445312 -4.921875 2.9375 -4.921875 C 3.425781 -4.921875 3.859375 -4.8125 4.234375 -4.59375 C 4.609375 -4.382812 4.898438 -4.09375 5.109375 -3.71875 C 5.316406 -3.34375 5.421875 -2.910156 5.421875 -2.421875 C 5.421875 -1.921875 5.316406 -1.484375 5.109375 -1.109375 C 4.898438 -0.734375 4.609375 -0.4375 4.234375 -0.21875 C 3.859375 -0.0078125 3.425781 0.09375 2.9375 0.09375 Z M 0.875 -2.421875 C 0.875 -2.003906 0.957031 -1.640625 1.125 -1.328125 C 1.300781 -1.015625 1.546875 -0.769531 1.859375 -0.59375 C 2.171875 -0.414062 2.53125 -0.328125 2.9375 -0.328125 C 3.34375 -0.328125 3.703125 -0.414062 4.015625 -0.59375 C 4.328125 -0.769531 4.566406 -1.015625 4.734375 -1.328125 C 4.910156 -1.640625 5 -2.003906 5 -2.421875 C 5 -2.828125 4.910156 -3.1875 4.734375 -3.5 C 4.566406 -3.820312 4.328125 -4.066406 4.015625 -4.234375 C 3.703125 -4.410156 3.34375 -4.5 2.9375 -4.5 C 2.53125 -4.5 2.171875 -4.410156 1.859375 -4.234375 C 1.546875 -4.066406 1.300781 -3.820312 1.125 -3.5 C 0.957031 -3.1875 0.875 -2.828125 0.875 -2.421875 Z M 0.875 -2.421875 "/></g></g></g><g fill="#64748b" fill-opacity="1"><g transform="translate(63.83435, 43.159927)"><g><path d="M 0.78125 0 L 0.78125 -4.828125 L 2.3125 -4.828125 C 2.875 -4.828125 3.3125 -4.6875 3.625 -4.40625 C 3.9375 -4.132812 4.09375 -3.75 4.09375 -3.25 C 4.09375 -2.75 3.9375 -2.359375 3.625 -2.078125 C 3.3125 -1.796875 2.875 -1.65625 2.3125 -1.65625 L 1.203125 -1.65625 L 1.203125 0 Z M 1.203125 -2.046875 L 2.3125 -2.046875 C 3.21875 -2.046875 3.671875 -2.441406 3.671875 -3.234375 C 3.671875 -4.035156 3.21875 -4.4375 2.3125 -4.4375 L 1.203125 -4.4375 Z M 1.203125 -2.046875 "/></g></g></g><g fill="#64748b" fill-opacity="1"><g transform="translate(68.112555, 43.159927)"><g><path d="M 0.78125 0 L 0.78125 -4.828125 L 1.171875 -4.828125 L 3.1875 -1.8125 L 5.1875 -4.828125 L 5.578125 -4.828125 L 5.578125 0 L 5.171875 0 L 5.171875 -4.0625 L 3.359375 -1.34375 L 3.015625 -1.34375 L 1.203125 -4.0625 L 1.203125 0 Z M 0.78125 0 "/></g></g></g><g fill="#64748b" fill-opacity="1"><g transform="translate(74.329753, 43.159927)"><g><path d="M 0.78125 0 L 0.78125 -4.828125 L 3.625 -4.828125 L 3.625 -4.4375 L 1.203125 -4.4375 L 1.203125 -2.65625 L 3.453125 -2.65625 L 3.453125 -2.265625 L 1.203125 -2.265625 L 1.203125 -0.390625 L 3.703125 -0.390625 L 3.703125 0 Z M 0.78125 0 "/></g></g></g><g fill="#64748b" fill-opacity="1"><g transform="translate(78.394044, 43.159927)"><g><path d="M 0.78125 0 L 0.78125 -4.828125 L 1.171875 -4.828125 L 4.109375 -0.71875 L 4.109375 -4.828125 L 4.53125 -4.828125 L 4.53125 0 L 4.140625 0 L 1.1875 -4.109375 L 1.1875 0 Z M 0.78125 0 "/></g></g></g><g fill="#64748b" fill-opacity="1"><g transform="translate(83.562388, 43.159927)"><g><path d="M 1.921875 0 L 1.921875 -4.4375 L 0.265625 -4.4375 L 0.265625 -4.828125 L 4.015625 -4.828125 L 4.015625 -4.4375 L 2.34375 -4.4375 L 2.34375 0 Z M 1.921875 0 "/></g></g></g><g fill="#64748b" fill-opacity="1"><g transform="translate(87.695688, 43.159927)"><g/></g></g><g fill="#64748b" fill-opacity="1"><g transform="translate(89.406969, 43.159927)"><g><path d="M 2.328125 0.09375 C 1.960938 0.09375 1.640625 0.03125 1.359375 -0.09375 C 1.085938 -0.21875 0.875 -0.394531 0.71875 -0.625 C 0.570312 -0.851562 0.492188 -1.125 0.484375 -1.4375 L 0.890625 -1.4375 C 0.921875 -1.082031 1.0625 -0.804688 1.3125 -0.609375 C 1.570312 -0.410156 1.910156 -0.3125 2.328125 -0.3125 C 2.722656 -0.3125 3.035156 -0.390625 3.265625 -0.546875 C 3.503906 -0.710938 3.625 -0.9375 3.625 -1.21875 C 3.625 -1.476562 3.515625 -1.6875 3.296875 -1.84375 C 3.085938 -2 2.738281 -2.128906 2.25 -2.234375 C 1.65625 -2.367188 1.222656 -2.546875 0.953125 -2.765625 C 0.691406 -2.984375 0.5625 -3.273438 0.5625 -3.640625 C 0.5625 -4.023438 0.707031 -4.332031 1 -4.5625 C 1.289062 -4.800781 1.695312 -4.921875 2.21875 -4.921875 C 2.75 -4.921875 3.164062 -4.789062 3.46875 -4.53125 C 3.78125 -4.28125 3.945312 -3.921875 3.96875 -3.453125 L 3.546875 -3.453125 C 3.523438 -3.796875 3.398438 -4.0625 3.171875 -4.25 C 2.941406 -4.4375 2.625 -4.53125 2.21875 -4.53125 C 1.820312 -4.53125 1.515625 -4.445312 1.296875 -4.28125 C 1.085938 -4.125 0.984375 -3.910156 0.984375 -3.640625 C 0.984375 -3.398438 1.082031 -3.195312 1.28125 -3.03125 C 1.488281 -2.875 1.847656 -2.738281 2.359375 -2.625 C 2.972656 -2.488281 3.40625 -2.304688 3.65625 -2.078125 C 3.914062 -1.859375 4.046875 -1.578125 4.046875 -1.234375 C 4.046875 -0.828125 3.890625 -0.503906 3.578125 -0.265625 C 3.273438 -0.0234375 2.859375 0.09375 2.328125 0.09375 Z M 2.328125 0.09375 "/></g></g></g><g fill="#64748b" fill-opacity="1"><g transform="translate(93.802477, 43.159927)"><g><path d="M 0.78125 0 L 0.78125 -4.828125 L 3.625 -4.828125 L 3.625 -4.4375 L 1.203125 -4.4375 L 1.203125 -2.65625 L 3.453125 -2.65625 L 3.453125 -2.265625 L 1.203125 -2.265625 L 1.203125 -0.390625 L 3.703125 -0.390625 L 3.703125 0 Z M 0.78125 0 "/></g></g></g><g fill="#64748b" fill-opacity="1"><g transform="translate(97.866763, 43.159927)"><g><path d="M 0.78125 0 L 0.78125 -4.828125 L 2.5625 -4.828125 C 2.894531 -4.828125 3.179688 -4.765625 3.421875 -4.640625 C 3.660156 -4.523438 3.84375 -4.351562 3.96875 -4.125 C 4.101562 -3.90625 4.171875 -3.640625 4.171875 -3.328125 C 4.171875 -2.929688 4.0625 -2.601562 3.84375 -2.34375 C 3.625 -2.082031 3.320312 -1.914062 2.9375 -1.84375 L 4.25 0 L 3.75 0 L 2.453125 -1.8125 L 1.203125 -1.8125 L 1.203125 0 Z M 1.203125 -2.21875 L 2.53125 -2.21875 C 2.90625 -2.21875 3.203125 -2.316406 3.421875 -2.515625 C 3.640625 -2.710938 3.75 -2.984375 3.75 -3.328125 C 3.75 -3.671875 3.640625 -3.941406 3.421875 -4.140625 C 3.203125 -4.335938 2.90625 -4.4375 2.53125 -4.4375 L 1.203125 -4.4375 Z M 1.203125 -2.21875 "/></g></g></g><g fill="#64748b" fill-opacity="1"><g transform="translate(102.448577, 43.159927)"><g><path d="M 2.09375 0 L 0.15625 -4.828125 L 0.59375 -4.828125 L 2.296875 -0.578125 L 3.015625 -2.421875 L 3.984375 -4.828125 L 4.421875 -4.828125 L 2.5 0 Z M 2.09375 0 "/></g></g></g><g fill="#64748b" fill-opacity="1"><g transform="translate(106.885485, 43.159927)"><g><path d="M 0.78125 0 L 0.78125 -4.828125 L 1.203125 -4.828125 L 1.203125 0 Z M 0.78125 0 "/></g></g></g><g fill="#64748b" fill-opacity="1"><g transform="translate(108.727874, 43.159927)"><g><path d="M 2.890625 0.09375 C 2.421875 0.09375 2 -0.0078125 1.625 -0.21875 C 1.257812 -0.4375 0.96875 -0.734375 0.75 -1.109375 C 0.539062 -1.492188 0.4375 -1.929688 0.4375 -2.421875 C 0.4375 -2.910156 0.539062 -3.34375 0.75 -3.71875 C 0.96875 -4.09375 1.257812 -4.382812 1.625 -4.59375 C 2 -4.8125 2.421875 -4.921875 2.890625 -4.921875 C 3.265625 -4.921875 3.609375 -4.851562 3.921875 -4.71875 C 4.234375 -4.582031 4.5 -4.390625 4.71875 -4.140625 C 4.945312 -3.898438 5.113281 -3.609375 5.21875 -3.265625 L 4.78125 -3.265625 C 4.644531 -3.648438 4.40625 -3.953125 4.0625 -4.171875 C 3.726562 -4.390625 3.34375 -4.5 2.90625 -4.5 C 2.507812 -4.5 2.15625 -4.410156 1.84375 -4.234375 C 1.539062 -4.066406 1.300781 -3.820312 1.125 -3.5 C 0.957031 -3.1875 0.875 -2.828125 0.875 -2.421875 C 0.875 -2.003906 0.957031 -1.640625 1.125 -1.328125 C 1.300781 -1.015625 1.539062 -0.769531 1.84375 -0.59375 C 2.15625 -0.414062 2.507812 -0.328125 2.90625 -0.328125 C 3.351562 -0.328125 3.75 -0.441406 4.09375 -0.671875 C 4.445312 -0.898438 4.691406 -1.21875 4.828125 -1.625 L 5.265625 -1.625 C 5.171875 -1.28125 5.003906 -0.976562 4.765625 -0.71875 C 4.535156 -0.457031 4.257812 -0.253906 3.9375 -0.109375 C 3.625 0.0234375 3.273438 0.09375 2.890625 0.09375 Z M 2.890625 0.09375 "/></g></g></g><g fill="#64748b" fill-opacity="1"><g transform="translate(114.261938, 43.159927)"><g><path d="M 0.78125 0 L 0.78125 -4.828125 L 3.625 -4.828125 L 3.625 -4.4375 L 1.203125 -4.4375 L 1.203125 -2.65625 L 3.453125 -2.65625 L 3.453125 -2.265625 L 1.203125 -2.265625 L 1.203125 -0.390625 L 3.703125 -0.390625 L 3.703125 0 Z M 0.78125 0 "/></g></g></g><g fill="#64748b" fill-opacity="1"><g transform="translate(118.326225, 43.159927)"><g><path d="M 2.328125 0.09375 C 1.960938 0.09375 1.640625 0.03125 1.359375 -0.09375 C 1.085938 -0.21875 0.875 -0.394531 0.71875 -0.625 C 0.570312 -0.851562 0.492188 -1.125 0.484375 -1.4375 L 0.890625 -1.4375 C 0.921875 -1.082031 1.0625 -0.804688 1.3125 -0.609375 C 1.570312 -0.410156 1.910156 -0.3125 2.328125 -0.3125 C 2.722656 -0.3125 3.035156 -0.390625 3.265625 -0.546875 C 3.503906 -0.710938 3.625 -0.9375 3.625 -1.21875 C 3.625 -1.476562 3.515625 -1.6875 3.296875 -1.84375 C 3.085938 -2 2.738281 -2.128906 2.25 -2.234375 C 1.65625 -2.367188 1.222656 -2.546875 0.953125 -2.765625 C 0.691406 -2.984375 0.5625 -3.273438 0.5625 -3.640625 C 0.5625 -4.023438 0.707031 -4.332031 1 -4.5625 C 1.289062 -4.800781 1.695312 -4.921875 2.21875 -4.921875 C 2.75 -4.921875 3.164062 -4.789062 3.46875 -4.53125 C 3.78125 -4.28125 3.945312 -3.921875 3.96875 -3.453125 L 3.546875 -3.453125 C 3.523438 -3.796875 3.398438 -4.0625 3.171875 -4.25 C 2.941406 -4.4375 2.625 -4.53125 2.21875 -4.53125 C 1.820312 -4.53125 1.515625 -4.445312 1.296875 -4.28125 C 1.085938 -4.125 0.984375 -3.910156 0.984375 -3.640625 C 0.984375 -3.398438 1.082031 -3.195312 1.28125 -3.03125 C 1.488281 -2.875 1.847656 -2.738281 2.359375 -2.625 C 2.972656 -2.488281 3.40625 -2.304688 3.65625 -2.078125 C 3.914062 -1.859375 4.046875 -1.578125 4.046875 -1.234375 C 4.046875 -0.828125 3.890625 -0.503906 3.578125 -0.265625 C 3.273438 -0.0234375 2.859375 0.09375 2.328125 0.09375 Z M 2.328125 0.09375 "/></g></g></g></svg>